Coordinates
version=1
nRows=8
nColumns=40
inDegrees=yes

Units are S.I. units (second, meters, Newtons, ...)
Angles are in degrees.

endheader
time	pelvis_tilt	pelvis_list	pelvis_rotation	pelvis_tx	pelvis_ty	pelvis_tz	hip_flexion_r	hip_adduction_r	hip_rotation_r	knee_angle_r	knee_angle_r_beta	ankle_angle_r	subtalar_angle_r	mtp_angle_r	hip_flexion_l	hip_adduction_l	hip_rotation_l	knee_angle_l	knee_angle_l_beta	ankle_angle_l	subtalar_angle_l	mtp_angle_l	lumbar_extension	lumbar_bending	lumbar_rotation	arm_flex_r	arm_add_r	arm_rot_r	elbow_flex_r	pro_sup_r	wrist_flex_r	wrist_dev_r	arm_flex_l	arm_add_l	arm_rot_l	elbow_flex_l	pro_sup_l	wrist_flex_l	wrist_dev_l
     58.90500000	     -7.07058201	     -4.34617400	     -2.52434072	      1.07996077	      0.92367587	      0.45244525	     32.33335469	     -1.76132458	    -13.32510901	     17.96975093	     17.96975093	      2.28275393	      2.49960173	      6.42710541	      6.00077763	     -6.88880266	    -12.66880482	     15.30234287	     15.30234287	     16.13600968	     -7.40531011	     -5.00526178	    -12.42203426	      5.36547724	      2.30560468	     -6.29783093	    -13.25602436	     -6.61688330	     25.47293209	     47.08342934	      0.00000000	      0.00000000	     21.00949471	    -18.51469114	     -5.95831787	     99.59041316	     48.13267096	      0.00000000	      0.00000000
     58.91621429	     -6.99382767	     -4.24478342	     -2.36991867	      1.08207906	      0.92189048	      0.45417181	     31.31449392	     -1.49352288	    -14.38492393	     16.09038099	     16.09038099	      2.22778734	      3.81238657	      7.19398004	      5.04790909	     -6.84914519	    -12.73103301	     14.98386342	     14.98386342	     16.72181757	     -6.99723119	     -5.09736076	    -12.20649874	      5.30112916	      2.52377307	     -7.95202298	    -13.16167924	     -6.70533668	     25.11562146	     47.08292918	      0.00000000	      0.00000000	     21.23588991	    -18.51540508	     -5.88245788	    101.84297618	     48.18149672	      0.00000000	      0.00000000
     58.92742857	     -6.91479039	     -4.09916131	     -2.18990148	      1.08425037	      0.91992273	      0.45601381	     30.63926576	     -1.39792873	    -15.45112492	     15.29154788	     15.29154788	      2.41621113	      4.94988688	      8.02701383	      4.27378524	     -6.87377403	    -13.04684538	     15.08076460	     15.08076460	     17.91814274	     -5.96677195	     -4.28377443	    -12.05901687	      5.18531260	      2.14445875	     -9.69700629	    -13.12496902	     -7.00990262	     26.35022411	     46.98536253	      0.00000000	      0.00000000	     20.63121118	    -19.03552503	     -6.30316670	    105.08580331	     48.32348631	      0.00000000	      0.00000000
     58.93864286	     -6.91608134	     -4.00181405	     -2.04725192	      1.08632884	      0.91792359	      0.45813220	     30.09747221	     -1.20229705	    -16.09787085	     14.84558133	     14.84558133	      2.16403275	      5.40791570	      7.73746325	      3.58114792	     -6.90786884	    -12.96854084	     15.09563224	     15.09563224	     18.58849507	     -5.72764265	     -4.15543374	    -11.71770665	      5.06530555	      2.31620353	    -11.16314213	    -12.96147896	     -6.97661338	     26.19152502	     46.96365219	      0.00000000	      0.00000000	     20.70535812	    -19.01006157	     -6.23923925	    106.68531210	     48.36432307	      0.00000000	      0.00000000
     58.94985714	     -6.95290134	     -3.91940119	     -1.88619958	      1.08840478	      0.91600552	      0.46038831	     29.74081621	     -1.03121257	    -16.36858640	     14.95811111	     14.95811111	      2.10402078	      5.31273325	      7.60846063	      3.00661212	     -6.98352299	    -12.81883756	     15.23212595	     15.23212595	     19.06552802	     -5.76401931	     -4.24508712	    -11.26125071	      5.02206571	      2.17059411	    -12.28958645	    -12.80736309	     -6.97582009	     25.88679293	     46.96391526	      0.00000000	      0.00000000	     20.71230212	    -19.19337864	     -6.38116356	    107.12491328	     48.38409247	      0.00000000	      0.00000000
     58.96107143	     -6.86070536	     -3.92584545	     -1.74184534	      1.09053627	      0.91421183	      0.46289458	     29.19548153	     -0.77447981	    -16.59541622	     15.07882412	     15.07882412	      0.43628858	      4.86483505	      2.37257034	      2.68013701	     -7.34573644	    -12.98901516	     16.28000621	     16.28000621	     20.72368128	     -4.92986956	     -2.11269849	    -11.21757533	      5.01742659	      2.13951948	    -14.13374119	    -12.80738122	     -6.71576954	     28.13071699	     46.77564735	      0.00000000	      0.00000000	     19.83581598	    -19.36578134	     -6.97659709	    110.46205866	     48.53952105	      0.00000000	      0.00000000
     58.97228571	     -6.79483025	     -3.99110985	     -1.62958503	      1.09236491	      0.91277628	      0.46547334	     28.99529671	     -0.56706804	    -16.57625744	     16.02292605	     16.02292605	      0.48695129	      4.31976214	      1.59568875	      2.40024754	     -7.69826309	    -12.71539530	     17.17659692	     17.17659692	     21.10724270	     -5.35410929	     -2.15945908	    -11.04338599	      5.09262449	      2.43053562	    -15.07755258	    -12.66066984	     -6.57260033	     27.87252872	     46.76067437	      0.00000000	      0.00000000	     19.71694851	    -19.13322541	     -7.04136657	    111.27265200	     48.56701614	      0.00000000	      0.00000000
     58.98350000	     -6.68771368	     -4.08305456	     -1.50240658	      1.09404607	      0.91172945	      0.46811406	     28.81258423	     -0.37214466	    -16.39719055	     17.15202811	     17.15202811	      0.61317803	      3.57658903	      0.65047692	      2.31491324	     -8.13458848	    -12.35001373	     18.49328425	     18.49328425	     21.36968987	     -5.93335399	     -2.22168214	    -10.97854374	      5.20748245	      2.63857451	    -15.82940835	    -12.52106778	     -6.47545042	     27.81294363	     46.74305608	      0.00000000	      0.00000000	     19.33079192	    -18.96648870	     -7.16885420	    112.07340779	     48.59616009	      0.00000000	      0.00000000
